<svg id="Layer_1" data-name="Layer 1" xmlns="http://www.w3.org/2000/svg" viewBox="0 0 95 95"><path d="M79.11,93.25H21.94a.75.75,0,0,1-.75-.78L24,28.34a.76.76,0,0,1,.75-.72H76.4a.76.76,0,0,1,.75.72l2.71,64.13a.76.76,0,0,1-.21.55A.74.74,0,0,1,79.11,93.25Zm-56.39-1.5H78.33L75.68,29.12H25.49Z"/><path d="M21.94,93.25a.74.74,0,0,1-.51-.2l-6-5.63a.77.77,0,0,1-.24-.59L19,24a.75.75,0,0,1,.75-.71H71.6a.74.74,0,0,1,.5.2l4.8,4.31a.75.75,0,1,1-1,1.11l-4.59-4.12H20.43L16.66,86.57,22.45,92a.75.75,0,0,1-.51,1.3Z"/><path d="M24.77,29.12a.76.76,0,0,1-.49-.18l-5.05-4.31a.74.74,0,0,1-.08-1.05.76.76,0,0,1,1.06-.09l5.05,4.31a.75.75,0,0,1-.49,1.32Z"/><path d="M63,35.57a.75.75,0,0,1-.75-.75V22a12.06,12.06,0,0,0-24.11,0V34.82a.75.75,0,1,1-1.5,0V22a13.56,13.56,0,0,1,27.11,0V34.82A.76.76,0,0,1,63,35.57Z"/><path d="M57.83,24.81a.74.74,0,0,1-.75-.75V15.3A12.06,12.06,0,0,0,33,15.3v8.76a.75.75,0,1,1-1.5,0V15.3a13.56,13.56,0,0,1,27.11,0v8.76A.75.75,0,0,1,57.83,24.81Z"/><path d="M50.7,74.18a.78.78,0,0,1-.41-.12c-.56-.37-13.82-9.14-13.82-15.56A8.08,8.08,0,0,1,50.52,53,8.09,8.09,0,0,1,64.58,58.5c0,6.59-12.91,15.2-13.46,15.56A.79.79,0,0,1,50.7,74.18ZM44.56,51.91A6.6,6.6,0,0,0,38,58.5c0,4.49,8.82,11.39,12.73,14,3.81-2.59,12.38-9.4,12.38-14a6.59,6.59,0,0,0-11.95-3.84.78.78,0,0,1-1.22,0A6.62,6.62,0,0,0,44.56,51.91Z"/></svg>