<svg id="Layer_1" data-name="Layer 1" xmlns="http://www.w3.org/2000/svg" viewBox="0 0 96 96"><path d="M81.5,92.28h-67a4.72,4.72,0,0,1-4.7-4.71V43.87a.74.74,0,0,1,.75-.75H21.48a.75.75,0,0,1,0,1.5H11.3V87.57a3.21,3.21,0,0,0,3.2,3.21h67a3.21,3.21,0,0,0,3.2-3.21V44.62H74.25a.75.75,0,0,1,0-1.5h11.2a.74.74,0,0,1,.75.75v43.7A4.72,4.72,0,0,1,81.5,92.28Z"/><path d="M87.43,44.62H74.25a.75.75,0,0,1,0-1.5H87.43a2.22,2.22,0,0,0,2.22-2.22V33.06a2.22,2.22,0,0,0-2.22-2.22H8.57a2.22,2.22,0,0,0-2.22,2.22V40.9a2.22,2.22,0,0,0,2.22,2.22H21.48a.75.75,0,0,1,0,1.5H8.57A3.73,3.73,0,0,1,4.85,40.9V33.06a3.73,3.73,0,0,1,3.72-3.72H87.43a3.73,3.73,0,0,1,3.72,3.72V40.9A3.73,3.73,0,0,1,87.43,44.62Z"/><path d="M41.83,92.28a.76.76,0,0,1-.75-.75V31.41a.75.75,0,1,1,1.5,0V91.53A.75.75,0,0,1,41.83,92.28Z"/><path d="M54.17,92.28a.75.75,0,0,1-.75-.75v-60a.75.75,0,0,1,1.5,0v60A.76.76,0,0,1,54.17,92.28Z"/><path d="M52.17,30.84H43.56a.74.74,0,0,1-.75-.75V29a4.58,4.58,0,0,1,4.58-4.58h1A4.58,4.58,0,0,1,52.92,29v1.12A.75.75,0,0,1,52.17,30.84Zm-7.86-1.5h7.11V29a3.08,3.08,0,0,0-3.08-3.08h-1A3.08,3.08,0,0,0,44.31,29Z"/><path d="M43.56,30.84a.75.75,0,0,1-.33-.07C27.24,23,18,15.61,15.61,8.93a6.23,6.23,0,0,1,2-7.13A5.58,5.58,0,0,1,22.21.93c9.55,2,22.65,23.94,23.2,24.87a.75.75,0,1,1-1.29.76C44,26.34,30.81,4.26,21.91,2.4A4.08,4.08,0,0,0,18.5,3,4.72,4.72,0,0,0,17,8.44c1.52,4.32,7.41,11.47,26.87,21a.75.75,0,0,1,.34,1A.73.73,0,0,1,43.56,30.84Z"/><path d="M32.61,30.86c-3.06,0-6.25,0-8.78,0a20.67,20.67,0,0,1-10.2-2.57,11.68,11.68,0,0,1-5.4-7.1,5,5,0,0,1,0-2.36,4.12,4.12,0,0,1,1.58-2.17,7.57,7.57,0,0,0,.6-.53,5.08,5.08,0,0,0,1.13-3.38c0-.25.05-.49.07-.74a13.15,13.15,0,0,1,1.71-5.54,3.75,3.75,0,0,1,2.89-2.09h0a.75.75,0,0,1,0,1.5c-.69,0-1.3.77-1.69,1.39a11.83,11.83,0,0,0-1.48,4.91c0,.24-.05.48-.07.71a6.36,6.36,0,0,1-1.55,4.29c-.22.22-.46.43-.7.63a2.85,2.85,0,0,0-1.1,1.38,3.63,3.63,0,0,0,0,1.66A10.11,10.11,0,0,0,14.38,27a19.06,19.06,0,0,0,9.47,2.37c5,0,12.62,0,16.71,0h3a.76.76,0,0,1,.75.76.75.75,0,0,1-.75.74c-.07,0-.23,0-.41,0H32.61Z"/><path d="M29.12,55.33a.71.71,0,0,1-.32-.07c-2.07-1-3-4.34-3.3-6-2.79,1-4.63,4.52-4.65,4.56a.74.74,0,0,1-1.41-.33c-.22-17.92,12.23-24,12.36-24.09a.75.75,0,0,1,.64,1.36C32,31,21.87,36,21,51a8.8,8.8,0,0,1,5-3.34.8.8,0,0,1,.58.14.77.77,0,0,1,.3.5,12.72,12.72,0,0,0,1.69,4.84A36.61,36.61,0,0,1,43.12,29.48.75.75,0,1,1,44,30.7,35.45,35.45,0,0,0,29.86,54.64a.72.72,0,0,1-.37.59A.69.69,0,0,1,29.12,55.33Z"/><path d="M52.17,30.84a.75.75,0,0,1-.33-1.42c19.46-9.51,25.35-16.66,26.87-21A4.74,4.74,0,0,0,77.23,3a4.08,4.08,0,0,0-3.41-.62c-8.9,1.86-22.08,23.94-22.21,24.16a.75.75,0,1,1-1.29-.76C50.87,24.87,64,2.92,73.51.93a5.6,5.6,0,0,1,4.6.87,6.23,6.23,0,0,1,2,7.13C77.78,15.61,68.49,23,52.5,30.77A.78.78,0,0,1,52.17,30.84Z"/><path d="M63.12,30.86H52.17a.75.75,0,0,1-.75-.74.76.76,0,0,1,.75-.76h3c4.09,0,11.69,0,16.71,0A19.06,19.06,0,0,0,81.35,27,10.11,10.11,0,0,0,86,20.82a3.62,3.62,0,0,0,0-1.66A2.77,2.77,0,0,0,85,17.78c-.24-.2-.48-.41-.7-.63a6.36,6.36,0,0,1-1.55-4.29c0-.23,0-.47-.08-.71a11.54,11.54,0,0,0-1.48-4.91c-.39-.62-1-1.36-1.68-1.39a.75.75,0,0,1-.72-.78.77.77,0,0,1,.78-.72,3.77,3.77,0,0,1,2.89,2.09A13,13,0,0,1,84.15,12c0,.25.06.49.08.74a5,5,0,0,0,1.13,3.38,7.57,7.57,0,0,0,.6.53,4.17,4.17,0,0,1,1.58,2.17,5.11,5.11,0,0,1,0,2.36,11.66,11.66,0,0,1-5.41,7.1,20.61,20.61,0,0,1-10.2,2.57C69.36,30.85,66.18,30.86,63.12,30.86Z"/><path d="M66.61,55.33a.71.71,0,0,1-.32-.07.75.75,0,0,1-.42-.61c0-.16-1.4-15.27-14.12-23.94a.75.75,0,0,1,.84-1.24C63.68,37,66.5,48.89,67.17,53.05a11.46,11.46,0,0,0,1.89-4.54.78.78,0,0,1,.31-.49.76.76,0,0,1,.56-.13A8.45,8.45,0,0,1,74.74,51c-.87-15-11-20-11.45-20.19a.75.75,0,0,1,.64-1.36c.13.06,12.58,6.17,12.36,24.09a.74.74,0,0,1-.58.72.75.75,0,0,1-.84-.39s-1.72-3.36-4.5-4.31C70,51,69.08,53.84,67,55.21A.79.79,0,0,1,66.61,55.33Z"/><path d="M63.56,44.62H54.17a.75.75,0,0,1,0-1.5h9.39a.75.75,0,0,1,0,1.5Z"/><path d="M41.83,44.62H32.21a.75.75,0,0,1,0-1.5h9.62a.75.75,0,0,1,0,1.5Z"/></svg>