<?xml version="1.0" ?><svg id="Line" style="enable-background:new 0 0 128 128;" version="1.1" viewBox="0 0 128 128" xml:space="preserve" xmlns="http://www.w3.org/2000/svg" xmlns:xlink="http://www.w3.org/1999/xlink"><g><path d="M126.273,43.038L77.685,29.259l-7.722-27.53c-0.072-0.256-0.243-0.472-0.474-0.602c-0.232-0.131-0.506-0.163-0.762-0.09   l-67,19c-0.53,0.15-0.839,0.701-0.69,1.232l23,82c0.072,0.256,0.243,0.472,0.474,0.602C24.662,103.957,24.831,104,25,104   c0.091,0,0.183-0.013,0.273-0.038l11.451-3.247l-1.687,6.015c-0.149,0.531,0.16,1.082,0.69,1.232l67,19   c0.09,0.025,0.182,0.038,0.273,0.038c0.169,0,0.338-0.043,0.489-0.128c0.231-0.13,0.402-0.346,0.474-0.602l23-82   C127.112,43.739,126.803,43.188,126.273,43.038z M92.963,83.729L80.326,38.676l37.431,10.026l-16.44,57.058L60.65,93.93   l31.622-8.968C92.803,84.812,93.112,84.261,92.963,83.729z M3.232,21.69L68.308,3.235l22.46,80.074l-65.076,18.455L3.232,21.69z    M102.308,124.765L37.232,106.31l1.749-6.235l18.044-5.117l44.695,13.003c0.091,0.027,0.186,0.04,0.279,0.04   c0.167,0,0.333-0.042,0.482-0.124c0.233-0.128,0.405-0.344,0.479-0.599l17-59c0.074-0.259,0.042-0.535-0.09-0.77   c-0.132-0.233-0.353-0.404-0.612-0.474L79.698,36.438l-1.38-4.92l46.45,13.173L102.308,124.765z"/><path d="M81.964,67.734l-16-58c-0.146-0.529-0.691-0.845-1.223-0.7l-56,15c-0.259,0.069-0.48,0.24-0.612,0.474   c-0.132,0.234-0.165,0.511-0.09,0.77l17,59c0.074,0.255,0.246,0.471,0.479,0.599C25.667,84.958,25.833,85,26,85   c0.094,0,0.188-0.013,0.279-0.04l55-16C81.804,68.808,82.109,68.262,81.964,67.734z M26.683,82.76l-16.44-57.058L64.3,11.223   l15.474,56.093L26.683,82.76z"/></g></svg>