<?xml version="1.0" ?><svg xmlns="http://www.w3.org/2000/svg" width="128" height="128" viewBox="0 0 128 128"><g><path d="M80.34,72.964a14.608,14.608,0,0,0,5.442-1.105A20.425,20.425,0,0,0,95.634,63c4.929-8.544,3.448-18.666-3.3-22.563a11.043,11.043,0,0,0-1.557-.734c1.973-7.285-.207-14.168-5.513-17.226a11.92,11.92,0,0,0-7.61-1.417C76.3,12.771,70.555,6.8,63.821,6.8c-7.171,0-13.115,6.677-14.01,15.609a11.4,11.4,0,0,0-4.887.383c-6.554,2.023-10.28,9.554-8.984,18a11.525,11.525,0,0,0-3.331,1.834c-6.094,4.864-6.058,15.093.081,22.8a20.414,20.414,0,0,0,11.059,7.3,15.42,15.42,0,0,0,3.565.431,12.678,12.678,0,0,0,4.253-.716c5.653,5.327,9.511,12.365,11.5,20.918-1.568-1.012-5.11-2.889-12.515-5.3a10.7,10.7,0,0,0-6.538-.371,5.72,5.72,0,0,0-4.008,4.879,6.271,6.271,0,0,0,3,6.143A17.231,17.231,0,0,0,51,100.829c.555.031,1.086.047,1.6.047a21.645,21.645,0,0,0,3.273-.238c-3.2,7.062-16.972,12.981-17.116,13.042a.5.5,0,0,0,.266.955l7.747-1.11-8.138,6.791a.5.5,0,0,0,.4.878c15.227-2.377,21.362-10.373,23.8-17.108a44.182,44.182,0,0,1-4.383,14.254.5.5,0,0,0,.885.466,43,43,0,0,0,3.966-11.531L63.261,120.7a.5.5,0,0,0,.5.5h0a.5.5,0,0,0,.5-.5l.033-14.407c.9,5.263,2.273,10.174,3.957,12.569a.5.5,0,1,0,.818-.575c-1.443-2.052-2.833-6.662-3.773-12.073,2.916,6.2,9.251,12.849,22.908,14.982a.509.509,0,0,0,.077.006.5.5,0,0,0,.321-.884l-8.138-6.791,7.746,1.11a.5.5,0,0,0,.267-.955c-.145-.062-14-6.018-17.146-13.108a21.061,21.061,0,0,0,3.652.3q.765,0,1.6-.047a17.227,17.227,0,0,0,7.993-2.113h0a6.273,6.273,0,0,0,3-6.142,5.721,5.721,0,0,0-4.011-4.881,10.717,10.717,0,0,0-6.535.372c-7.25,2.36-10.792,4.206-12.409,5.232,2.339-8.93,6.051-15.876,11.339-21.164A11.819,11.819,0,0,0,80.34,72.964ZM94.769,62.5a19.431,19.431,0,0,1-9.359,8.431,11.775,11.775,0,0,1-10.459-.384,10.891,10.891,0,0,1-4.483-5.129c4.453-3.014,7.491-8.952,7.491-15.775a22,22,0,0,0-.891-6.189c4.745-3.757,10.509-4.61,14.763-2.151C98.1,44.925,99.422,54.434,94.769,62.5ZM43.3,94.846c-.244-.315-.427-.763.32-1.434,1.024-.923,2.845-1.266,4.986-1.266,4.8,0,11.189,1.718,13.834,2.5l-.778.517C54.587,98.486,44.9,96.929,43.3,94.846ZM63.821,32.759c7.244,0,13.138,7.574,13.138,16.884S71.065,66.527,63.821,66.527,50.683,58.953,50.683,49.643,56.577,32.759,63.821,32.759Zm-.5,34.736V88.108c-1.327-7.727-3.083-15.347-6.394-19.609a11.929,11.929,0,0,0,1.364-2.4A11.609,11.609,0,0,0,63.321,67.5Zm1,0a11.644,11.644,0,0,0,5.287-1.552,12.774,12.774,0,0,0,1.372,2.348c-3.612,3.97-5.328,11.53-6.659,19.589Zm20.44-44.152c4.893,2.819,6.889,9.223,5.064,16.041-4.107-1.181-8.94-.091-13.075,3.053C74.669,36.485,70.1,32.244,64.712,31.816c.079-.143.153-.286.232-.426A19.431,19.431,0,0,1,74.3,22.959,11.779,11.779,0,0,1,84.761,23.343ZM63.821,7.8c6.237,0,11.575,5.617,12.844,13.417a15.682,15.682,0,0,0-2.735.814,20.431,20.431,0,0,0-9.853,8.862c-.165.291-.324.587-.48.88a11.35,11.35,0,0,0-1.481.129c-2.625-4.991-6.877-8.357-11.32-9.314C51.611,14.131,57.148,7.8,63.821,7.8Zm-18.6,15.948C50.912,22,57.492,25.505,61.085,32.1,56.155,33.33,52.15,37.813,50.5,43.7c-4.4-3.21-9.377-4.318-13.6-3.206C35.753,32.6,39.185,25.61,45.218,23.748ZM43.98,71.759a19.418,19.418,0,0,1-10.508-6.95c-5.8-7.279-5.9-16.878-.239-21.4,4.407-3.508,11.362-2.947,17,1.33a22.252,22.252,0,0,0-.553,4.9c0,6.952,3.159,12.975,7.75,15.933a10.528,10.528,0,0,1-3.164,4.253A11.8,11.8,0,0,1,43.98,71.759Zm10.912-1.147a11.249,11.249,0,0,0,1.377-1.321c2.837,3.783,4.493,10.3,5.741,17.147a39.683,39.683,0,0,0-9.44-14.4A11.369,11.369,0,0,0,54.892,70.612ZM51.06,99.831a16.288,16.288,0,0,1-7.528-1.967A5.284,5.284,0,0,1,41,92.691a4.743,4.743,0,0,1,3.32-4.045,7,7,0,0,1,2.128-.309,12.375,12.375,0,0,1,3.8.679A72.483,72.483,0,0,1,60.48,93.052c-5.118-1.35-14.354-3.246-17.533-.384a1.919,1.919,0,0,0-.444,2.789c2,2.592,12.155,3.984,19.448.659.03-.01.063,0,.091-.017a.476.476,0,0,0,.057-.034l.086-.057c.18-.085.368-.16.545-.252-.775,1.226-2.483,2.959-6.1,3.725h0A21.2,21.2,0,0,1,51.06,99.831ZM40.71,119.883l8.052-6.719a.5.5,0,0,0-.391-.879l-6.2.888c4.549-2.3,12.787-7.129,14.861-12.76a10.45,10.45,0,0,0,5.9-3.273c.041.554.1,1.108.176,1.666C62.163,105.345,57.957,116.5,40.71,119.883Zm44.348-6.71-6.2-.888a.5.5,0,0,0-.391.879l8.05,6.719c-15.326-3.011-20.346-12.144-21.942-18.738q-.147-1.349-.25-2.709c.023-.605.035-1.151.038-1.631a10.016,10.016,0,0,0,5.8,3.531C72.2,106,80.488,110.863,85.058,113.173Zm.02-17.716a1.918,1.918,0,0,0-.442-2.789C81.455,89.8,72.221,91.7,67.1,93.052a72.462,72.462,0,0,1,10.235-4.036,9.737,9.737,0,0,1,5.921-.371,4.746,4.746,0,0,1,3.322,4.047,5.285,5.285,0,0,1-2.529,5.172,16.293,16.293,0,0,1-7.529,1.967,20.861,20.861,0,0,1-5.767-.388.479.479,0,0,0-.206-.048,8.809,8.809,0,0,1-5.7-3.639C72.181,99.555,83.011,98.142,85.078,95.457Zm-20.1-.767c3.647-1.08,15.622-4.312,18.99-1.278.746.671.562,1.119.319,1.434C82.608,97.023,72.1,98.64,64.977,94.69Zm.448-7.345c1.276-7.569,2.928-14.573,6.194-18.265a11.372,11.372,0,0,0,2.832,2.333c.179.1.37.179.554.272A42.988,42.988,0,0,0,65.425,87.345Z"/><path d="M26.1,33.723a2.231,2.231,0,0,0,2.061-1.247,2.313,2.313,0,0,0-.241-2.425c-.386-.5-1.326-1.257-3.311-.881.414-1.46,1.7-3.026,4.395-4.013a.5.5,0,1,0-.344-.939c-3.393,1.243-4.834,3.361-5.141,5.253a4.663,4.663,0,0,0-2.975,5.04.5.5,0,0,0,.493.417.451.451,0,0,0,.081-.007.5.5,0,0,0,.413-.573,3.627,3.627,0,0,1,1.933-3.762c.012.166.032.328.059.485A2.88,2.88,0,0,0,26.1,33.723Zm-1.423-3.546a2.378,2.378,0,0,1,2.455.49,1.307,1.307,0,0,1,.131,1.37,1.236,1.236,0,0,1-1.163.686c-.746,0-1.4-.751-1.592-1.827a3.531,3.531,0,0,1-.054-.668C24.524,30.21,24.6,30.193,24.675,30.177Z"/><path d="M112.7,51.73a.517.517,0,0,0-.518-.479.5.5,0,0,0-.482.518,3.625,3.625,0,0,1-2.386,3.493,4.437,4.437,0,0,0,0-.489,2.88,2.88,0,0,0-2.226-2.951,2.226,2.226,0,0,0-2.2.982,2.316,2.316,0,0,0-.062,2.436c.322.539,1.169,1.411,3.176,1.285-.592,1.4-2.063,2.792-4.858,3.437a.5.5,0,0,0,.112.987.482.482,0,0,0,.112-.013c3.521-.812,5.214-2.735,5.754-4.575A4.661,4.661,0,0,0,112.7,51.73ZM108.285,55.5l-.227.023c-1.172.1-2.013-.182-2.376-.791a1.306,1.306,0,0,1,.041-1.376,1.205,1.205,0,0,1,1.044-.549,1.437,1.437,0,0,1,.194.013c.741.092,1.3.918,1.352,2.009A3.64,3.64,0,0,1,108.285,55.5Z"/><path d="M21.32,51.279a2.491,2.491,0,0,0-2.17.857,2.513,2.513,0,0,0-2.177-.857,2.083,2.083,0,0,0-1.59,1.676,3.435,3.435,0,0,0,.5,2.664,4.815,4.815,0,0,0,3.168,1.962.522.522,0,0,0,.193,0,4.877,4.877,0,0,0,3.168-1.969,3.437,3.437,0,0,0,.486-2.694A2.057,2.057,0,0,0,21.32,51.279Zm.261,3.783a3.844,3.844,0,0,1-2.43,1.518,3.846,3.846,0,0,1-2.43-1.513,2.443,2.443,0,0,1-.369-1.868c.112-.381.341-.853.8-.936a.818.818,0,0,1,.149-.013,2.046,2.046,0,0,1,1.451.952.5.5,0,0,0,.4.2h0a.5.5,0,0,0,.4-.2,1.861,1.861,0,0,1,1.591-.937c.458.082.688.554.791.9A2.445,2.445,0,0,1,21.581,55.062Z"/><path d="M99.105,73.779a2.5,2.5,0,0,0-2.17.857,2.51,2.51,0,0,0-2.176-.857,2.083,2.083,0,0,0-1.59,1.676,3.44,3.44,0,0,0,.5,2.664,4.813,4.813,0,0,0,3.168,1.962.5.5,0,0,0,.1.009.523.523,0,0,0,.1-.009,4.876,4.876,0,0,0,3.169-1.969,3.441,3.441,0,0,0,.485-2.694A2.056,2.056,0,0,0,99.105,73.779Zm.261,3.783a3.839,3.839,0,0,1-2.43,1.518,3.843,3.843,0,0,1-2.429-1.513,2.443,2.443,0,0,1-.369-1.868c.112-.381.341-.853.8-.936a.81.81,0,0,1,.149-.013,2.046,2.046,0,0,1,1.451.952.5.5,0,0,0,.4.2h0a.5.5,0,0,0,.4-.2,1.851,1.851,0,0,1,1.592-.938c.458.082.687.554.791.9A2.445,2.445,0,0,1,99.366,77.562Z"/><path d="M20.854,91.163H19.648v-1.2a.5.5,0,0,0-1,0v1.2h-1.2a.5.5,0,1,0,0,1h1.2v1.206a.5.5,0,0,0,1,0V92.163h1.206a.5.5,0,0,0,0-1Z"/><path d="M107.725,23.481h1.206v1.207a.5.5,0,1,0,1,0V23.481h1.2a.5.5,0,0,0,0-1h-1.2V21.276a.5.5,0,1,0-1,0v1.205h-1.206a.5.5,0,0,0,0,1Z"/><path d="M26.364,97.65A1.949,1.949,0,1,0,28.313,99.6,1.951,1.951,0,0,0,26.364,97.65Zm0,2.9a.949.949,0,1,1,.949-.948A.95.95,0,0,1,26.364,100.547Z"/><path d="M105.2,33.708a1.949,1.949,0,1,0-1.949,1.949A1.951,1.951,0,0,0,105.2,33.708Zm-2.9,0a.949.949,0,1,1,.949.949A.95.95,0,0,1,102.3,33.708Z"/></g></svg>