<?xml version="1.0" encoding="UTF-8" standalone="no"?>
<svg
   xmlns:dc="http://purl.org/dc/elements/1.1/"
   xmlns:cc="http://creativecommons.org/ns#"
   xmlns:rdf="http://www.w3.org/1999/02/22-rdf-syntax-ns#"
   xmlns:svg="http://www.w3.org/2000/svg"
   xmlns="http://www.w3.org/2000/svg"
   xmlns:sodipodi="http://sodipodi.sourceforge.net/DTD/sodipodi-0.dtd"
   xmlns:inkscape="http://www.inkscape.org/namespaces/inkscape"
   inkscape:export-ydpi="576"
   inkscape:export-xdpi="576"
   inkscape:export-filename="E:\Filedline\1 - Pizza.png"
   width="64pt"
   height="64pt"
   viewBox="0 0 22.577778 22.577778"
   version="1.1"
   id="svg831"
   inkscape:version="1.0 (4035a4fb49, 2020-05-01)"
   sodipodi:docname="EXPORT 64px.svg">
  <defs
     id="defs825">
    <pattern
       id="EMFhbasepattern"
       patternUnits="userSpaceOnUse"
       width="6"
       height="6"
       x="0"
       y="0" />
    <pattern
       id="EMFhbasepattern-9"
       patternUnits="userSpaceOnUse"
       width="6"
       height="6"
       x="0"
       y="0" />
    <pattern
       id="EMFhbasepattern-0"
       patternUnits="userSpaceOnUse"
       width="6"
       height="6"
       x="0"
       y="0" />
    <pattern
       id="EMFhbasepattern-7"
       patternUnits="userSpaceOnUse"
       width="6"
       height="6"
       x="0"
       y="0" />
    <pattern
       id="EMFhbasepattern-2"
       patternUnits="userSpaceOnUse"
       width="6"
       height="6"
       x="0"
       y="0" />
    <pattern
       id="EMFhbasepattern-98"
       patternUnits="userSpaceOnUse"
       width="6"
       height="6"
       x="0"
       y="0" />
    <pattern
       id="EMFhbasepattern-6"
       patternUnits="userSpaceOnUse"
       width="6"
       height="6"
       x="0"
       y="0" />
    <pattern
       id="EMFhbasepattern-01"
       patternUnits="userSpaceOnUse"
       width="6"
       height="6"
       x="0"
       y="0" />
    <pattern
       id="EMFhbasepattern-07"
       patternUnits="userSpaceOnUse"
       width="6"
       height="6"
       x="0"
       y="0" />
    <pattern
       id="EMFhbasepattern-8"
       patternUnits="userSpaceOnUse"
       width="6"
       height="6"
       x="0"
       y="0" />
    <pattern
       id="EMFhbasepattern-4"
       patternUnits="userSpaceOnUse"
       width="6"
       height="6"
       x="0"
       y="0" />
    <pattern
       id="EMFhbasepattern-40"
       patternUnits="userSpaceOnUse"
       width="6"
       height="6"
       x="0"
       y="0" />
    <pattern
       id="EMFhbasepattern-08"
       patternUnits="userSpaceOnUse"
       width="6"
       height="6"
       x="0"
       y="0" />
    <pattern
       id="EMFhbasepattern-04"
       patternUnits="userSpaceOnUse"
       width="6"
       height="6"
       x="0"
       y="0" />
    <pattern
       id="EMFhbasepattern-014"
       patternUnits="userSpaceOnUse"
       width="6"
       height="6"
       x="0"
       y="0" />
    <pattern
       id="EMFhbasepattern-27"
       patternUnits="userSpaceOnUse"
       width="6"
       height="6"
       x="0"
       y="0" />
    <pattern
       id="EMFhbasepattern-09"
       patternUnits="userSpaceOnUse"
       width="6"
       height="6"
       x="0"
       y="0" />
    <pattern
       id="EMFhbasepattern-5"
       patternUnits="userSpaceOnUse"
       width="6"
       height="6"
       x="0"
       y="0" />
    <pattern
       id="EMFhbasepattern-018"
       patternUnits="userSpaceOnUse"
       width="6"
       height="6"
       x="0"
       y="0" />
  </defs>
  <sodipodi:namedview
     id="base"
     pagecolor="#ffffff"
     bordercolor="#666666"
     borderopacity="1.0"
     inkscape:pageopacity="0.0"
     inkscape:pageshadow="2"
     inkscape:zoom="4.350364"
     inkscape:cx="17.986679"
     inkscape:cy="47.993125"
     inkscape:document-units="pt"
     inkscape:current-layer="layer1"
     showgrid="false"
     units="pt"
     inkscape:window-width="1366"
     inkscape:window-height="715"
     inkscape:window-x="-8"
     inkscape:window-y="-8"
     inkscape:window-maximized="1"
     inkscape:pagecheckerboard="true"
     inkscape:showpageshadow="false"
     inkscape:object-paths="true"
     inkscape:snap-intersection-paths="true"
     inkscape:snap-smooth-nodes="true"
     inkscape:snap-midpoints="true"
     showguides="true"
     inkscape:snap-bbox="true"
     inkscape:bbox-nodes="true"
     inkscape:snap-nodes="false"
     inkscape:snap-global="true"
     inkscape:document-rotation="0">
    <inkscape:grid
       type="xygrid"
       id="grid1378" />
    <sodipodi:guide
       position="0.97013831,21.607643"
       orientation="78.000048,0"
       id="guide1380"
       inkscape:locked="false" />
    <sodipodi:guide
       position="0.97013831,0.97013129"
       orientation="0,78.000005"
       id="guide1382"
       inkscape:locked="false" />
    <sodipodi:guide
       position="21.607639,0.97013129"
       orientation="-78.000048,0"
       id="guide1384"
       inkscape:locked="false" />
    <sodipodi:guide
       position="21.607639,21.607643"
       orientation="0,-78.000005"
       id="guide1386"
       inkscape:locked="false" />
  </sodipodi:namedview>
  <metadata
     id="metadata828">
    <rdf:RDF>
      <cc:Work
         rdf:about="">
        <dc:format>image/svg+xml</dc:format>
        <dc:type
           rdf:resource="http://purl.org/dc/dcmitype/StillImage" />
        <dc:title></dc:title>
      </cc:Work>
    </rdf:RDF>
  </metadata>
  <g
     inkscape:label="Icon"
     inkscape:groupmode="layer"
     id="layer1"
     transform="translate(0,-274.42223)">
    <path
       id="path538"
       style="color:#000000;font-style:normal;font-variant:normal;font-weight:normal;font-stretch:normal;font-size:medium;line-height:normal;font-family:sans-serif;font-variant-ligatures:normal;font-variant-position:normal;font-variant-caps:normal;font-variant-numeric:normal;font-variant-alternates:normal;font-variant-east-asian:normal;font-feature-settings:normal;font-variation-settings:normal;text-indent:0;text-align:start;text-decoration:none;text-decoration-line:none;text-decoration-style:solid;text-decoration-color:#000000;letter-spacing:normal;word-spacing:normal;text-transform:none;writing-mode:lr-tb;direction:ltr;text-orientation:mixed;dominant-baseline:auto;baseline-shift:baseline;text-anchor:start;white-space:normal;shape-padding:0;shape-margin:0;inline-size:0;clip-rule:nonzero;display:inline;overflow:visible;visibility:visible;opacity:1;isolation:auto;mix-blend-mode:normal;color-interpolation:sRGB;color-interpolation-filters:linearRGB;solid-color:#000000;solid-opacity:1;vector-effect:none;fill:#000000;fill-opacity:1;fill-rule:evenodd;stroke:none;stroke-width:0.656128;stroke-linecap:round;stroke-linejoin:round;stroke-miterlimit:4;stroke-dasharray:none;stroke-dashoffset:0;stroke-opacity:1;color-rendering:auto;image-rendering:auto;shape-rendering:auto;text-rendering:auto;enable-background:accumulate;stop-color:#000000;stop-opacity:1"
       d="m 11.570996,275.39403 c -0.931898,0.0931 -1.590401,0.38479 -2.0100334,0.83297 -0.331316,0.35387 -0.4913879,0.79017 -0.5459191,1.23986 -0.3974619,0.0552 -0.771553,0.29852 -0.9752217,0.58115 -0.1995672,0.28398 -0.3174347,0.61716 -0.3754794,0.93486 -0.02489,0.13622 -0.038147,0.26731 -0.040368,0.39471 -0.2171298,0.0302 -0.4323952,0.1348 -0.586286,0.32484 -0.524292,0.64749 -0.9099928,1.54952 -0.8746239,2.41691 0.014261,0.45278 0.150563,0.91635 0.4555742,1.22064 -0.3368311,0.13745 -0.5877066,0.46252 -0.574112,0.85476 -0.01847,0.35061 0.072766,0.73614 0.2928228,0.8381 0.1423089,0.0949 0.2517993,0.11482 0.35882,0.12558 6.233e-4,0.97626 0.04523,2.07012 0.6388278,2.7815 -0.020836,0.14028 -0.065094,0.41858 -0.023709,0.74968 0.044921,0.3594 0.2607864,0.7764 0.7182806,1.00662 l 0.5939753,5.35538 c 0.040085,0.36077 0.2733206,0.64542 0.6369054,0.73366 1.3541094,0.32907 2.7094284,0.32376 4.0495384,0 0.363489,-0.0878 0.598719,-0.37274 0.638828,-0.73366 l 0.594616,-5.35923 c 0.262816,-0.12956 0.457648,-0.31445 0.570267,-0.52349 0.08654,-0.15974 0.02679,-0.3594 -0.133276,-0.44532 -0.200968,-0.0889 -0.356819,-0.0302 -0.445321,0.13263 -0.06208,0.11519 -0.157081,0.21581 -0.387654,0.29539 -1.784317,0.36635 -3.638837,0.47529 -5.7154886,0.002 -0.3825024,-0.12921 -0.4388495,-0.30063 -0.4696699,-0.54719 -0.015688,-0.12553 0.00675,-0.26328 0.021787,-0.39471 1.6097492,0.49978 3.0848475,0.71906 4.6351875,0.52541 0.178948,-0.0229 0.305758,-0.18615 0.283851,-0.36522 -0.02201,-0.18002 -0.185889,-0.30801 -0.365869,-0.28578 -1.563998,0.1918 -3.3810418,-0.0757 -4.6685047,-0.54079 -0.5464109,-0.69421 -0.5012582,-1.54257 -0.5042701,-2.32465 1.5401791,0.24235 3.0796648,0.34567 4.6332638,0.29474 0.213092,0.62409 0.706439,0.73133 1.256511,0.61064 v 1.04443 c -9e-6,0.53966 0.445818,0.98544 0.985473,0.98547 0.539672,0 0.982911,-0.4458 0.982911,-0.98547 v -0.3883 c 0.103061,0.0372 0.21223,0.0616 0.327423,0.0616 0.53967,0 0.985473,-0.44645 0.985473,-0.98611 v -2.32465 c 0.0062,-1.06243 -0.626822,-2.35113 -1.721696,-2.77573 -0.169669,-0.87563 -0.453219,-1.46467 -0.843228,-1.84472 -0.19815,-0.1931 -0.418587,-0.32321 -0.647157,-0.41264 0.07477,-0.32233 0.08421,-0.58581 0.03204,-0.81503 -0.12886,-0.44838 -0.459303,-0.69099 -0.784278,-0.96873 -0.07434,-0.0871 -0.116008,-0.15693 -0.108929,-0.36586 0.0081,-0.23886 -0.03939,-0.47797 -0.191585,-0.67344 -0.13795,-0.30401 -0.359403,-0.28695 -0.699697,-0.2832 z m 0.181332,0.68561 c 0.02462,0.0317 0.06007,0.12151 0.05574,0.24925 -0.01166,0.34485 0.10502,0.62742 0.26399,0.81375 0.256083,0.21145 0.503809,0.44964 0.642031,0.68752 0.02379,0.10451 0.02701,0.26848 -0.03011,0.51965 -0.497375,-0.0753 -1.04185,-0.0163 -1.495511,-0.0423 -0.685811,-0.0405 -0.988626,-0.39185 -1.5288295,-0.692 0.031209,-0.36696 0.1423603,-0.68361 0.3806055,-0.93807 0.439158,-0.38024 0.948247,-0.61763 1.712085,-0.59782 z m -2.0023446,2.36372 c 0.4149976,0.3753 0.9226006,0.49023 1.3968356,0.52029 0.947413,0.004 1.64791,-0.0972 2.366289,0.4191 0.221035,0.21541 0.426573,0.56989 0.577956,1.14694 -0.430351,-0.0828 -0.878553,-0.0916 -1.323789,-0.0718 -0.803332,0.0355 -1.611999,0.1555 -2.315029,0.12362 -0.7030299,-0.0319 -1.2715276,-0.19413 -1.7120846,-0.69521 -0.1266902,-0.1441 -0.276579,-0.26598 -0.4421176,-0.35882 -0.014294,-0.10164 -0.021498,-0.24818 0.010883,-0.42546 0.043278,-0.23686 0.1404777,-0.49387 0.2684741,-0.676 0.3951699,-0.46169 0.8048537,-0.28295 1.1725736,0.0173 z m -1.5038399,1.87677 c 0.5848512,0.6652 1.3799904,0.879 2.1747055,0.91499 0.794714,0.036 1.61912,-0.0876 2.37526,-0.12114 0.584319,-0.0259 1.116198,0.004 1.565352,0.16788 1.153196,0.44518 1.468499,1.597 1.517937,2.30028 v 2.27595 c 0,0.18507 -0.144278,0.32935 -0.329346,0.32935 -0.185072,-3e-5 -0.327428,-0.14428 -0.327422,-0.32935 -6.9e-4,-0.18018 -0.146598,-0.32609 -0.326783,-0.32679 -0.181186,-7.1e-4 -0.328639,0.1456 -0.329345,0.32679 v 1.3129 c 0,0.18507 -0.141715,0.32935 -0.326784,0.32935 -0.185069,-2e-5 -0.329349,-0.14428 -0.329345,-0.32935 v -1.96646 c 7.22e-4,-0.18119 -0.145597,-0.32865 -0.326783,-0.32936 -0.17395,-6.5e-4 -0.318172,0.13457 -0.328704,0.30821 -0.0075,0.26808 -0.07855,0.35048 -0.328079,0.34792 -0.274704,0.004 -0.32692,-0.16623 -0.329346,-0.36586 v -1.32188 c -0.0027,-0.20756 -0.178953,-0.34643 -0.371657,-0.33575 -1.384285,0.0437 -2.7950899,0.002 -4.2103679,-0.13392 -0.44515,-0.0894 -0.7262596,-0.2607 -0.9053799,-0.47031 -0.1861205,-0.2178 -0.2778105,-0.49015 -0.2909005,-0.81118 -0.02618,-0.64205 0.2998613,-1.44845 0.7291734,-1.97865 0.2728486,-0.20152 0.4551261,0.004 0.6978144,0.20633 z m -1.2475403,3.60549 c 1.6053259,0.20358 3.4705148,0.27409 4.9427458,0.24286 v 0.68944 c -1.85069,0.0444 -3.6717689,-0.11804 -5.2112201,-0.36778 -0.011122,-0.0482 -0.023667,-0.14972 -0.029474,-0.31718 -0.00659,-0.18995 0.096384,-0.27335 0.2979487,-0.24733 z m 1.7050357,5.909 c 1.8535261,0.35803 3.5569691,0.29767 5.1631631,0.004 l -0.57155,5.13882 c -0.0039,0.0352 -0.114544,0.16148 -0.138401,0.16724 -1.244302,0.30062 -2.485969,0.30761 -3.7413387,0.002 -0.023637,-0.007 -0.1364,-0.13447 -0.1403246,-0.1698 z"
       sodipodi:nodetypes="csccsccccccccscccccccccccscsccccccccscccccccccccccccccccccccccccscsccccccccsccscsccccccccccsccccccsccccccsccc" />
  </g>
</svg>
