<svg id="Layer_1" data-name="Layer 1" xmlns="http://www.w3.org/2000/svg" viewBox="0 0 95 95"><path d="M49.24,66.25h0a.78.78,0,0,1-.55-.26,24.28,24.28,0,0,0-2.42-2.37l-1.14-.95C43.18,61.1,41,59.31,41,56.94a5,5,0,0,1,4.71-5,4.75,4.75,0,0,1,3.44,1.47,4.73,4.73,0,0,1,3.44-1.47,5,5,0,0,1,4.71,5c0,2.21-2,4-4,5.7l-1.08,1C51,64.8,49.79,66,49.78,66A.73.73,0,0,1,49.24,66.25ZM45.7,53.41a3.52,3.52,0,0,0-3.21,3.53c0,1.66,1.81,3.14,3.57,4.57.4.33.8.65,1.17,1,.89.77,1.59,1.46,2,1.92.47-.47,1.19-1.18,2-1.91l1.1-1c1.7-1.5,3.46-3.05,3.46-4.58a3.53,3.53,0,0,0-3.21-3.53A3.22,3.22,0,0,0,49.79,55a.78.78,0,0,1-1.3,0A3.22,3.22,0,0,0,45.7,53.41Z"/><path d="M49.26,43c-13.57,0-24.61-9.26-24.61-20.63s11-20.63,24.61-20.63S73.86,11,73.86,22.38,62.83,43,49.26,43Zm0-39.76c-12.74,0-23.11,8.58-23.11,19.13S36.52,41.51,49.26,41.51s23.1-8.58,23.1-19.13S62,3.25,49.26,3.25Z"/><path d="M49.26,43c-7.56,0-13.72-4.19-13.72-9.33s6.16-9.33,13.72-9.33S63,28.54,63,33.68,56.82,43,49.26,43Zm0-17.16C42.52,25.85,37,29.36,37,33.68s5.48,7.83,12.22,7.83S61.47,38,61.47,33.68,56,25.85,49.26,25.85Z"/><path d="M49.26,35.25c-2.91,0-5.27-1.84-5.27-4.09s2.36-4.08,5.27-4.08,5.27,1.83,5.27,4.08S52.17,35.25,49.26,35.25Zm0-6.67c-2,0-3.77,1.18-3.77,2.58s1.72,2.59,3.77,2.59S53,32.56,53,31.16,51.3,28.58,49.26,28.58Z"/><path d="M42.89,25.8a2.6,2.6,0,1,1,2.6-2.6A2.6,2.6,0,0,1,42.89,25.8Zm0-3.7a1.1,1.1,0,1,0,0,2.2,1.1,1.1,0,1,0,0-2.2Z"/><path d="M57.18,26.46a2.59,2.59,0,1,1,2.59-2.58A2.59,2.59,0,0,1,57.18,26.46Zm0-3.67a1.09,1.09,0,1,0,1.09,1.09A1.08,1.08,0,0,0,57.18,22.79Z"/><path d="M73.11,23.13a.74.74,0,0,1-.71-.53.75.75,0,0,1,.5-.94c3.1-.94,4.66-2.34,4.78-4.29S77,12.69,75,11.56c-1.66-.91-4-.42-5.63.35a.75.75,0,0,1-1-.36.76.76,0,0,1,.36-1c1-.45,4.28-1.8,7-.3s3.64,4.65,3.49,7.2S77.05,22,73.33,23.1A.78.78,0,0,1,73.11,23.13Z"/><path d="M25.43,22.1l-.16,0a4.94,4.94,0,0,1-2.13-1.36c-3.24-3-3.62-7.61-.89-10.61A9.09,9.09,0,0,1,32.29,8a.75.75,0,0,1-.59,1.38,7.53,7.53,0,0,0-8.34,1.76c-2.49,2.74-1.48,6.36.81,8.51a3.79,3.79,0,0,0,1.43,1,.73.73,0,0,1,.56.9A.75.75,0,0,1,25.43,22.1Z"/><path d="M11.31,77.28a8.54,8.54,0,0,1-4.37-1.15A6.57,6.57,0,0,1,3.86,71.9C3,68.29,5.3,64.75,7.31,61.63c.52-.81,1-1.56,1.41-2.27A64.64,64.64,0,0,1,17.1,47.51c5.8-6.4,11.45-10,16.8-10.61a.76.76,0,0,1,.83.66.74.74,0,0,1-.66.83c-5,.6-10.31,4-15.86,10.12A63.58,63.58,0,0,0,10,60.1c-.42.74-.92,1.52-1.45,2.34-1.85,2.87-3.95,6.13-3.25,9.12a5.06,5.06,0,0,0,2.39,3.28,7.38,7.38,0,0,0,5.62.68A.75.75,0,1,1,13.72,77,9.37,9.37,0,0,1,11.31,77.28Z"/><path d="M87.41,81.54a.76.76,0,0,1-.51-.2.76.76,0,0,1,0-1.06c6.07-6.52,1.4-14.58-2-20.47-.5-.85-1-1.65-1.37-2.4-4.9-12.62-19.11-19-19.25-19.08a.74.74,0,0,1-.38-1,.76.76,0,0,1,1-.38c.6.27,14.91,6.7,20,19.82.36.65.82,1.44,1.3,2.28C89.59,65,94.79,74,88,81.3A.75.75,0,0,1,87.41,81.54Z"/><path d="M29,93.25c-9.09,0-16.49-6.51-16.49-14.5s7.4-14.5,16.49-14.5,16.49,6.5,16.49,14.5S38.09,93.25,29,93.25Zm0-27.5c-8.27,0-15,5.83-15,13s6.72,13,15,13,15-5.83,15-13S37.26,65.75,29,65.75Z"/><path d="M70.19,93.25C60.73,93.25,53,87.17,53,79.7s7.7-13.55,17.16-13.55S87.34,72.23,87.34,79.7,79.65,93.25,70.19,93.25Zm0-25.6c-8.64,0-15.66,5.41-15.66,12s7,12,15.66,12,15.65-5.41,15.65-12S78.82,67.65,70.19,67.65Z"/><path d="M56.12,87.05a.78.78,0,0,1-.47-.17c-6.6-5.45-12.75-.24-13,0a.75.75,0,0,1-1-1.13c.07-.06,7.35-6.27,14.94,0a.74.74,0,0,1,.1,1A.75.75,0,0,1,56.12,87.05Z"/><path d="M24.51,66.31h-.14a.74.74,0,0,1-.59-.88,6.15,6.15,0,0,1,6.93-5,.75.75,0,1,1-.16,1.49,4.72,4.72,0,0,0-5.3,3.78A.75.75,0,0,1,24.51,66.31Z"/><path d="M26.58,63a.74.74,0,0,1-.74-.64c-1.23-8.63,6.64-16.84,7-17.18a.75.75,0,1,1,1.07,1c-.07.07-7.69,8-6.57,15.92a.75.75,0,0,1-.63.85Z"/><path d="M74,68H74a.75.75,0,0,1-.68-.82,4.72,4.72,0,0,0-5.38-5.25h0a.75.75,0,0,1-.75-.74.76.76,0,0,1,.75-.76h.05a6.77,6.77,0,0,1,5.25,2,6.87,6.87,0,0,1,1.58,4.92A.74.74,0,0,1,74,68Z"/><path d="M71.94,63h-.11a.75.75,0,0,1-.64-.85c1.13-7.9-6.49-15.85-6.57-15.92a.75.75,0,1,1,1.08-1c.33.34,8.21,8.55,7,17.18A.76.76,0,0,1,71.94,63Z"/><path d="M49.26,39.47a.75.75,0,0,1-.75-.75V34.5a.75.75,0,0,1,1.5,0v4.22A.76.76,0,0,1,49.26,39.47Z"/></svg>