<?xml version="1.0" ?><!DOCTYPE svg  PUBLIC '-//W3C//DTD SVG 1.1//EN'  'http://www.w3.org/Graphics/SVG/1.1/DTD/svg11.dtd'><svg xmlns="http://www.w3.org/2000/svg" xmlns:xlink="http://www.w3.org/1999/xlink" xmlns:serif="http://www.serif.com/" width="100%" height="100%" viewBox="0 0 512 512" version="1.1" xml:space="preserve" style="fill-rule:evenodd;clip-rule:evenodd;stroke-linejoin:round;stroke-miterlimit:2;"><g transform="matrix(1,0,0,1,-2248,-562)"><g id="Icons"><path d="M2441.21,666.132L2441.21,686.802L2406.41,686.802C2404.12,686.802 2402.12,688.362 2401.57,690.586L2383.04,764.526L2378.28,764.526C2367.88,764.526 2359.45,772.964 2359.45,783.357L2359.45,805.427C2323.03,830.626 2299.7,869.83 2299.7,913.763C2299.7,957.696 2323.03,996.9 2359.45,1022.1L2359.45,1044.17C2359.45,1054.56 2367.88,1063 2378.28,1063C2378.28,1063 2531.75,1063 2531.75,1063C2542.14,1063 2550.58,1054.56 2550.58,1044.17L2550.58,1022.1C2587,996.9 2610.33,957.696 2610.33,913.763C2610.33,869.83 2587,830.626 2550.58,805.427L2550.58,783.357C2550.58,772.964 2542.14,764.526 2531.75,764.526L2526.99,764.526L2508.46,690.586C2507.91,688.362 2505.91,686.802 2503.61,686.802L2468.82,686.802L2468.82,666.132L2482.6,666.132C2485.36,666.132 2487.6,663.893 2487.6,661.132L2487.6,640.354L2505.63,640.354C2508.39,640.354 2510.63,638.113 2510.63,635.354C2510.63,632.594 2508.39,630.354 2505.63,630.354L2487.6,630.354L2487.6,609.576C2487.6,606.814 2485.36,604.576 2482.6,604.576L2427.43,604.576C2424.67,604.576 2422.43,606.814 2422.43,609.576L2422.43,661.132C2422.43,663.893 2424.67,666.132 2427.43,666.132L2441.21,666.132ZM2369.45,1028.19L2369.45,1044.17C2369.45,1049.04 2373.4,1053 2378.28,1053L2531.75,1053C2536.63,1053 2540.58,1049.04 2540.58,1044.17L2540.58,1028.19C2515.45,1041.27 2483.15,1042.77 2455.01,1042.77C2426.88,1042.77 2394.58,1041.27 2369.45,1028.19ZM2455.01,793.8C2487.95,793.8 2518.4,795.963 2542.81,812.235C2577.68,835.485 2600.33,872.295 2600.33,913.763C2600.33,955.231 2577.68,992.041 2542.81,1015.29C2518.4,1031.56 2484.26,1032.77 2455.01,1032.77C2425.77,1032.77 2391.63,1031.56 2367.22,1015.29C2332.34,992.041 2309.7,955.231 2309.7,913.763C2309.7,872.295 2332.34,835.485 2367.22,812.235C2391.63,795.963 2422.08,793.8 2455.01,793.8ZM2555.3,852.784C2569,870.051 2577.05,891.046 2577.05,913.689C2577.05,916.449 2579.3,918.689 2582.05,918.689C2584.82,918.689 2587.05,916.449 2587.05,913.689C2587.05,888.742 2578.23,865.595 2563.14,846.571C2561.43,844.409 2558.28,844.045 2556.12,845.76C2553.95,847.475 2553.59,850.622 2555.3,852.784ZM2528.79,828.525C2533.56,831.707 2538.06,835.19 2542.25,838.943C2544.3,840.785 2547.47,840.611 2549.31,838.556C2551.15,836.501 2550.97,833.337 2548.92,831.496C2544.38,827.428 2539.51,823.653 2534.33,820.205C2532.04,818.674 2528.93,819.295 2527.4,821.592C2525.87,823.888 2526.49,826.995 2528.79,828.525ZM2540.58,799.253L2540.58,783.357C2540.58,778.483 2536.63,774.526 2531.75,774.526C2531.75,774.526 2378.28,774.526 2378.28,774.526C2373.4,774.526 2369.45,778.483 2369.45,783.357L2369.45,799.253C2393.98,786.076 2423.37,783.8 2455.01,783.8C2486.65,783.8 2516.05,786.076 2540.58,799.253ZM2446.21,696.802L2410.32,696.802L2393.35,764.526L2468.55,764.526L2516.68,764.526L2499.71,696.802L2463.82,696.802L2463.82,696.802L2446.21,696.802L2446.21,696.802ZM2627.96,586.479C2625.05,585.377 2621.9,584.774 2618.61,584.774C2608.53,584.774 2599.77,590.424 2595.31,598.726C2591.16,596.01 2586.19,594.432 2580.87,594.432C2567.98,594.432 2557.24,603.675 2554.91,615.888C2554.55,615.871 2554.18,615.864 2553.82,615.864C2539.23,615.864 2527.39,627.707 2527.39,642.296C2527.39,656.884 2539.23,668.728 2553.82,668.728C2554.18,668.728 2554.55,668.72 2554.91,668.703C2557.24,680.917 2567.98,690.159 2580.87,690.159C2585.09,690.159 2589.09,689.165 2592.64,687.398C2597.47,693.667 2605.05,697.707 2613.58,697.707C2620.88,697.707 2627.5,694.737 2632.29,689.937C2637.08,694.737 2643.69,697.707 2651,697.707C2661.45,697.707 2670.49,691.628 2674.78,682.815C2677.04,683.443 2679.41,683.778 2681.87,683.778C2696.46,683.778 2708.3,671.934 2708.3,657.346C2708.3,648.694 2704.14,641.007 2697.7,636.184C2698.46,633.727 2698.87,631.116 2698.87,628.412C2698.87,615.474 2689.55,604.694 2677.26,602.423C2677.38,601.441 2677.43,600.443 2677.43,599.432C2677.43,584.844 2665.59,573 2651,573C2641.12,573 2632.5,578.436 2627.96,586.479ZM2627.68,597.507C2629,598.386 2630.66,598.585 2632.15,598.043C2633.65,597.502 2634.79,596.285 2635.24,594.763C2637.26,587.965 2643.55,583 2651,583C2660.07,583 2667.43,590.363 2667.43,599.432C2667.43,601.48 2667.06,603.442 2666.37,605.25C2665.77,606.84 2666.02,608.627 2667.03,609.994C2668.03,611.362 2669.67,612.123 2671.37,612.014C2671.72,611.991 2672.08,611.98 2672.43,611.98C2681.5,611.98 2688.87,619.343 2688.87,628.412C2688.87,631.112 2688.21,633.662 2687.06,635.911C2686.45,637.096 2686.33,638.476 2686.75,639.744C2687.16,641.012 2688.06,642.063 2689.25,642.663C2694.62,645.37 2698.3,650.931 2698.3,657.346C2698.3,666.415 2690.94,673.778 2681.87,673.778C2679.1,673.778 2676.48,673.09 2674.19,671.873C2672.82,671.148 2671.2,671.096 2669.79,671.732C2668.38,672.367 2667.34,673.619 2666.98,675.122C2665.25,682.339 2658.75,687.707 2651,687.707C2644.84,687.707 2639.47,684.306 2636.65,679.281C2635.77,677.702 2634.1,676.724 2632.29,676.724C2630.48,676.724 2628.81,677.702 2627.93,679.281C2625.11,684.306 2619.74,687.707 2613.58,687.707C2607.03,687.707 2601.38,683.874 2598.73,678.333C2598.08,676.956 2596.83,675.955 2595.34,675.613C2593.86,675.272 2592.3,675.627 2591.1,676.578C2588.29,678.82 2584.74,680.159 2580.87,680.159C2571.8,680.159 2564.43,672.797 2564.43,663.728C2564.43,663.535 2564.44,663.344 2564.45,663.154C2564.5,661.566 2563.8,660.047 2562.55,659.061C2561.31,658.074 2559.67,657.738 2558.14,658.155C2556.76,658.529 2555.31,658.728 2553.82,658.728C2544.75,658.728 2537.39,651.365 2537.39,642.296C2537.39,633.227 2544.75,625.864 2553.82,625.864C2555.31,625.864 2556.76,626.063 2558.14,626.437C2559.67,626.853 2561.31,626.517 2562.55,625.531C2563.8,624.544 2564.5,623.025 2564.45,621.438C2564.44,621.248 2564.43,621.056 2564.43,620.864C2564.43,611.795 2571.8,604.432 2580.87,604.432C2586.02,604.432 2590.62,606.81 2593.64,610.526C2594.87,612.043 2596.87,612.704 2598.76,612.218C2600.66,611.732 2602.09,610.187 2602.44,608.264C2603.82,600.596 2610.54,594.774 2618.61,594.774C2621.96,594.774 2625.08,595.779 2627.68,597.507ZM2451.21,666.132L2451.21,686.802L2458.82,686.802L2458.82,666.132L2451.21,666.132ZM2477.6,614.576L2477.6,656.132C2477.6,656.132 2432.43,656.132 2432.43,656.132C2432.43,656.132 2432.43,614.576 2432.43,614.576L2477.6,614.576Z"/></g></g></svg>